<?xml version="1.0" standalone="no"?><!-- Generator: Gravit.io --><svg xmlns="http://www.w3.org/2000/svg" xmlns:xlink="http://www.w3.org/1999/xlink" style="isolation:isolate" viewBox="0 0 1920 1280" width="1920" height="1280"><defs><clipPath id="_clipPath_eFK6qfw6xPqZFECk5rYKl5W54emYJ2dY"><rect width="1920" height="1280"/></clipPath></defs><g clip-path="url(#_clipPath_eFK6qfw6xPqZFECk5rYKl5W54emYJ2dY)"><line x1="610" y1="640" x2="1310" y2="640" vector-effect="non-scaling-stroke" stroke-width="16" stroke="rgb(0,0,0)" stroke-linejoin="miter" stroke-linecap="square" stroke-miterlimit="3"/><line x1="785" y1="700" x2="1135" y2="700" vector-effect="non-scaling-stroke" stroke-width="8" stroke="rgb(0,0,0)" stroke-linejoin="miter" stroke-linecap="square" stroke-miterlimit="3"/><line x1="785" y1="580" x2="1135" y2="580" vector-effect="non-scaling-stroke" stroke-width="8" stroke="rgb(0,0,0)" stroke-linejoin="miter" stroke-linecap="square" stroke-miterlimit="3"/><line x1="960" y1="320" x2="960" y2="960" vector-effect="non-scaling-stroke" stroke-width="3" stroke="rgb(0,0,0)" stroke-linejoin="miter" stroke-linecap="square" stroke-miterlimit="3"/><line x1="870.5" y1="520" x2="1045.5" y2="520" vector-effect="non-scaling-stroke" stroke-width="4" stroke="rgb(0,0,0)" stroke-linejoin="miter" stroke-linecap="square" stroke-miterlimit="3"/><line x1="872.5" y1="760" x2="1047.5" y2="760" vector-effect="non-scaling-stroke" stroke-width="4" stroke="rgb(0,0,0)" stroke-linejoin="miter" stroke-linecap="square" stroke-miterlimit="3"/><g transform="matrix(1,0,0,1,1153,687.764)"><text transform="matrix(1,0,0,1,0,21.377)" style="font-family:'Open Sans';font-weight:400;font-size:20px;font-style:normal;fill:#000000;stroke:none;">10</text></g><g transform="matrix(1,0,0,1,1153,567.764)"><text transform="matrix(1,0,0,1,0,21.377)" style="font-family:'Open Sans';font-weight:400;font-size:20px;font-style:normal;fill:#000000;stroke:none;">10</text></g><g transform="matrix(1,0,0,1,1064,747.764)"><text transform="matrix(1,0,0,1,0,21.377)" style="font-family:'Open Sans';font-weight:400;font-size:20px;font-style:normal;fill:#000000;stroke:none;">20</text></g><g transform="matrix(1,0,0,1,1064,507.764)"><text transform="matrix(1,0,0,1,0,21.377)" style="font-family:'Open Sans';font-weight:400;font-size:20px;font-style:normal;fill:#000000;stroke:none;">20</text></g><path d=" M 960 274 L 973.702 297.34 L 988.3 323.05 L 960 318.01 L 931.7 323.05 L 945.048 299.506 L 960 274 Z " fill="rgb(235,235,235)" style=":undefined;" vector-effect="non-scaling-stroke" stroke-width="1" stroke="rgb(0,0,0)" stroke-linejoin="miter" stroke-linecap="square" stroke-miterlimit="3"/></g></svg>